# xmcd CD database file
#
# Track frame offsets:
#	150
#	89976
#	147033
#	186866
#
# Disc length: 3346 seconds
#
# Revision: 0
# Processed by: cddbd v1.5.2PL0 Copyright (c) Steve Scherf et al.
# Submitted via: CDex 1.51
#
DISCID=360d1004
DTITLE=Miles Davis - The Last Trip To Vienna Disc-2
DYEAR=1991
DGENRE=Jazz
TTITLE0=Human Nature
TTITLE1=Time After Time
TTITLE2=Wrinkle
TTITLE3=Penetration
EXTD=YEAR: 1991
EXTT0=
EXTT1=
EXTT2=
EXTT3=
PLAYORDER=
